#N canvas 952 0 958 966 12;
#X declare -lib Gem;
#X obj 387 27 tgl 19 0 empty empty empty 0 -10 0 12 #fcfcfc #000000 #000000 0 1;
#X obj 233 300 metro;
#X obj 387 298 metro;
#X obj 541 299 metro;
#X obj 680 298 metro;
#X floatatom 313 302 5 0 0 0 - - - 0;
#X floatatom 461 299 5 0 0 0 - - - 0;
#X floatatom 605 301 5 0 0 0 - - - 0;
#X floatatom 747 298 5 0 0 0 - - - 0;
#X obj 287 363 bng 19 250 50 0 empty empty empty 0 -10 0 12 #fcfcfc #000000 #000000;
#X obj 438 363 bng 19 250 50 0 empty empty empty 0 -10 0 12 #fcfcfc #000000 #000000;
#X obj 591 363 bng 19 250 50 0 empty empty empty 0 -10 0 12 #fcfcfc #000000 #000000;
#X obj 737 362 bng 19 250 50 0 empty empty empty 0 -10 0 12 #fcfcfc #000000 #000000;
#X obj 231 417 spigot;
#X obj 387 416 spigot;
#X obj 685 414 spigot;
#X obj 291 416 tgl 19 0 empty empty empty 0 -10 0 12 #fcfcfc #000000 #000000 0 1;
#X obj 450 416 tgl 19 0 empty empty empty 0 -10 0 12 #fcfcfc #000000 #000000 0 1;
#X obj 608 413 tgl 19 0 empty empty empty 0 -10 0 12 #fcfcfc #000000 #000000 0 1;
#X obj 751 414 tgl 19 0 empty empty empty 0 -10 0 12 #fcfcfc #000000 #000000 0 1;
#X obj 750 555 noteout 1;
#X obj 328 245 * 1;
#X obj 448 242 * 2;
#X obj 98 27 declare -lib Gem;
#X obj 103 242 gemwin;
#X msg 192 103 create \, 1;
#X msg 103 104 0 \, destroy;
#X obj 540 414 spigot;
#X obj 234 69 moses 1;
#X obj 103 293 gemhead;
#X obj 223 592 bng 19 250 50 0 empty empty empty 0 -10 0 12 #fcfcfc #000000 #000000;
#X obj 138 649 random 6;
#X obj 223 650 random 6;
#X obj 309 648 random 6;
#X obj 138 735 * 0.1;
#X floatatom 138 775 5 0 0 0 - - - 0;
#X obj 223 692 + 5;
#X obj 223 736 * 0.1;
#X floatatom 223 776 5 0 0 0 - - - 0;
#X obj 309 693 + 5;
#X obj 309 737 * 0.1;
#X floatatom 309 777 5 0 0 0 - - - 0;
#X obj 273 1083 sphere;
#X obj 759 27 hsl 162 19 100 1000 0 1 empty empty empty -2 -10 0 12 #fcfcfc #000000 #000000 0 1;
#X obj 756 57 int;
#X floatatom 756 145 5 0 0 0 - - - 0;
#X obj 564 241 * 3;
#X obj 713 240 * 4;
#X msg 231 363 60;
#X msg 387 363 64;
#X msg 540 363 67;
#X msg 685 363 70;
#X obj 103 979 scaleXYZ;
#X obj 234 911 line;
#X floatatom 138 930 5 0 0 0 - - - 0;
#X msg 278 846 0.5 10;
#X obj 234 998 rotateXYZ;
#X obj 565 787 snapshot~;
#X obj 717 814 snapshot~;
#X obj 839 841 snapshot~;
#X obj 659 724 bng 19 250 50 0 empty empty empty 0 -10 0 12 #fcfcfc #000000 #000000;
#X obj 565 724 osc~ 0.25;
#X obj 718 704 osc~ 0.24;
#X obj 840 775 osc~ 0.23;
#X obj 565 826 * 360;
#X obj 717 852 * 360;
#X obj 839 877 * 360;
#X floatatom 363 926 9 0 0 0 - - - 0;
#X floatatom 505 911 9 0 0 0 - - - 0;
#X floatatom 639 919 8 0 0 0 - - - 0;
#X obj 389 774 bng 19 250 50 0 empty empty empty 0 -10 0 12 #fcfcfc #000000 #000000;
#X obj 140 1022 loadbang;
#X obj 540 553 s color;
#X obj 387 519 s escala;
#X obj 231 471 s rotacion;
#X obj 223 542 r color;
#X obj 389 727 r escala;
#X obj 659 668 r rotacion;
#X obj 268 1279 rotateXYZ;
#X obj 373 1127 snapshot~;
#X obj 547 1154 snapshot~;
#X obj 669 1181 snapshot~;
#X obj 467 1060 bng 19 250 50 0 empty empty empty 0 -10 0 12 #fcfcfc #000000 #000000;
#X obj 373 1162 * 360;
#X obj 547 1199 * 360;
#X obj 669 1227 * 360;
#X floatatom 373 1201 9 0 0 0 - - - 0;
#X floatatom 547 1237 9 0 0 0 - - - 0;
#X floatatom 669 1261 8 0 0 0 - - - 0;
#X obj 234 1439 cube;
#X obj 268 1326 cube;
#X obj 373 1064 osc~ 2.25;
#X obj 467 1011 r cubos;
#X obj 685 601 s cubos;
#X obj 548 1044 osc~ 2.24;
#X obj 670 1115 osc~ 2.23;
#X obj 373 1293 / 1.9;
#X obj 547 1299 / 1.9;
#X obj 669 1324 / 1.9;
#X floatatom 373 1329 8 0 0 0 - - - 0;
#X obj 234 1382 rotateXYZ;
#X floatatom 547 1336 10 0 0 0 - - - 0;
#X floatatom 669 1364 9 0 0 0 - - - 0;
#X msg 192 158 dimen 640 480;
#X obj 389 831 delay 100;
#X obj 750 507 makenote 100 200;
#X msg 140 1064 draw line;
#X obj 138 691 + 5;
#X obj 26 293 gemhead;
#X obj 103 857 colorRGB;
#X obj 26 858 colorRGB;
#X obj 26 980 scaleXYZ;
#X obj 756 88 div 100;
#X obj 756 117 * 100;
#X msg 314 892 1.5 100;
#X connect 0 0 1 0;
#X connect 0 0 2 0;
#X connect 0 0 3 0;
#X connect 0 0 4 0;
#X connect 0 0 28 0;
#X connect 1 0 9 0;
#X connect 1 0 48 0;
#X connect 2 0 10 0;
#X connect 2 0 49 0;
#X connect 3 0 50 0;
#X connect 3 0 11 0;
#X connect 4 0 51 0;
#X connect 4 0 12 0;
#X connect 13 0 74 0;
#X connect 13 0 105 0;
#X connect 14 0 73 0;
#X connect 14 0 105 0;
#X connect 15 0 93 0;
#X connect 15 0 105 0;
#X connect 16 0 13 1;
#X connect 17 0 14 1;
#X connect 18 0 27 1;
#X connect 19 0 15 1;
#X connect 21 0 1 1;
#X connect 21 0 5 0;
#X connect 22 0 2 1;
#X connect 22 0 6 0;
#X connect 25 0 24 0;
#X connect 25 0 103 0;
#X connect 26 0 24 0;
#X connect 27 0 72 0;
#X connect 27 0 105 0;
#X connect 28 0 26 0;
#X connect 28 1 25 0;
#X connect 29 0 109 0;
#X connect 30 0 31 0;
#X connect 30 0 32 0;
#X connect 30 0 33 0;
#X connect 31 0 107 0;
#X connect 32 0 36 0;
#X connect 33 0 39 0;
#X connect 34 0 35 0;
#X connect 35 0 109 1;
#X connect 35 0 110 1;
#X connect 36 0 37 0;
#X connect 37 0 38 0;
#X connect 38 0 109 2;
#X connect 38 0 110 2;
#X connect 39 0 40 0;
#X connect 40 0 41 0;
#X connect 41 0 109 3;
#X connect 41 0 110 3;
#X connect 43 0 44 0;
#X connect 44 0 112 0;
#X connect 45 0 22 0;
#X connect 45 0 21 0;
#X connect 45 0 46 0;
#X connect 45 0 47 0;
#X connect 45 0 105 2;
#X connect 46 0 7 0;
#X connect 46 0 3 1;
#X connect 47 0 4 1;
#X connect 47 0 8 0;
#X connect 48 0 13 0;
#X connect 49 0 14 0;
#X connect 50 0 27 0;
#X connect 51 0 15 0;
#X connect 52 0 56 0;
#X connect 53 0 54 0;
#X connect 54 0 52 1;
#X connect 54 0 52 2;
#X connect 54 0 52 3;
#X connect 54 0 111 3;
#X connect 54 0 111 2;
#X connect 54 0 111 1;
#X connect 55 0 53 0;
#X connect 56 0 42 0;
#X connect 57 0 64 0;
#X connect 58 0 65 0;
#X connect 59 0 66 0;
#X connect 60 0 58 0;
#X connect 60 0 57 0;
#X connect 60 0 59 0;
#X connect 61 0 57 0;
#X connect 62 0 58 0;
#X connect 63 0 59 0;
#X connect 64 0 67 0;
#X connect 65 0 68 0;
#X connect 66 0 69 0;
#X connect 67 0 56 1;
#X connect 68 0 56 2;
#X connect 69 0 56 3;
#X connect 70 0 55 0;
#X connect 70 0 104 0;
#X connect 71 0 106 0;
#X connect 75 0 30 0;
#X connect 76 0 70 0;
#X connect 77 0 60 0;
#X connect 78 0 90 0;
#X connect 79 0 83 0;
#X connect 80 0 84 0;
#X connect 81 0 85 0;
#X connect 82 0 80 0;
#X connect 82 0 79 0;
#X connect 82 0 81 0;
#X connect 83 0 86 0;
#X connect 84 0 87 0;
#X connect 85 0 88 0;
#X connect 86 0 78 1;
#X connect 86 0 96 0;
#X connect 87 0 78 2;
#X connect 87 0 97 0;
#X connect 88 0 78 3;
#X connect 88 0 98 0;
#X connect 91 0 79 0;
#X connect 92 0 82 0;
#X connect 94 0 80 0;
#X connect 95 0 81 0;
#X connect 96 0 99 0;
#X connect 97 0 101 0;
#X connect 98 0 102 0;
#X connect 99 0 100 1;
#X connect 100 0 89 0;
#X connect 101 0 100 2;
#X connect 102 0 100 3;
#X connect 103 0 24 0;
#X connect 104 0 114 0;
#X connect 105 0 20 0;
#X connect 105 1 20 1;
#X connect 106 0 42 0;
#X connect 106 0 89 0;
#X connect 106 0 90 0;
#X connect 107 0 34 0;
#X connect 108 0 110 0;
#X connect 109 0 52 0;
#X connect 110 0 111 0;
#X connect 111 0 78 0;
#X connect 111 0 100 0;
#X connect 112 0 113 0;
#X connect 113 0 45 0;
#X connect 114 0 53 0;
